<svg xmlns="http://www.w3.org/2000/svg" xmlns:xlink="http://www.w3.org/1999/xlink" width="2000" zoomAndPan="magnify" viewBox="0 0 1500 1499.999933" height="2000" preserveAspectRatio="xMidYMid meet" version="1.0"><defs><g/><clipPath id="23579e529d"><path d="M 0.28125 41 L 723 41 L 723 1266 L 0.28125 1266 Z M 0.28125 41 " clip-rule="nonzero"/></clipPath><clipPath id="4a002e6792"><rect x="0" width="723" y="0" height="1225"/></clipPath><clipPath id="788d429a47"><rect x="0" width="804" y="0" height="1225"/></clipPath><clipPath id="1153c0eaab"><path d="M 561.164062 0.4375 L 673.011719 0.4375 L 673.011719 112.289062 L 561.164062 112.289062 Z M 561.164062 0.4375 " clip-rule="nonzero"/></clipPath><clipPath id="edb6e61d7b"><path d="M 617.089844 0.4375 C 586.203125 0.4375 561.164062 25.476562 561.164062 56.363281 C 561.164062 87.25 586.203125 112.289062 617.089844 112.289062 C 647.976562 112.289062 673.011719 87.25 673.011719 56.363281 C 673.011719 25.476562 647.976562 0.4375 617.089844 0.4375 Z M 617.089844 0.4375 " clip-rule="nonzero"/></clipPath><clipPath id="c8c7a9488d"><path d="M 0.164062 0.4375 L 112.011719 0.4375 L 112.011719 112.289062 L 0.164062 112.289062 Z M 0.164062 0.4375 " clip-rule="nonzero"/></clipPath><clipPath id="424fc0a51b"><path d="M 56.089844 0.4375 C 25.203125 0.4375 0.164062 25.476562 0.164062 56.363281 C 0.164062 87.25 25.203125 112.289062 56.089844 112.289062 C 86.976562 112.289062 112.011719 87.25 112.011719 56.363281 C 112.011719 25.476562 86.976562 0.4375 56.089844 0.4375 Z M 56.089844 0.4375 " clip-rule="nonzero"/></clipPath><clipPath id="58d18fec7c"><rect x="0" width="113" y="0" height="113"/></clipPath><clipPath id="b36bbb0041"><rect x="0" width="1387" y="0" height="1266"/></clipPath></defs><g transform="matrix(1, 0, 0, 1, 59, 234)"><g clip-path="url(#b36bbb0041)"><g clip-path="url(#23579e529d)"><g transform="matrix(1, 0, 0, 1, 0, 41)"><g clip-path="url(#4a002e6792)"><g fill="#000000" fill-opacity="1"><g transform="translate(0.587857, 937.355636)"><g><path d="M 715.40625 -877.3125 C 672.726562 -877.3125 635.28125 -867.476562 603.0625 -847.8125 C 570.851562 -828.15625 542.613281 -800.960938 518.34375 -766.234375 C 494.082031 -731.503906 472.117188 -691.96875 452.453125 -647.625 C 432.796875 -603.28125 414.179688 -556.425781 396.609375 -507.0625 L 715.40625 0 L 602.4375 0 L 356.453125 -390.328125 C 338.878906 -340.128906 320.46875 -291.597656 301.21875 -244.734375 C 281.976562 -197.878906 260.429688 -156.046875 236.578125 -119.234375 C 212.734375 -82.421875 185.332031 -53.34375 154.375 -32 C 123.414062 -10.664062 86.597656 0 43.921875 0 L 43.921875 -7.53125 C 84.085938 -7.53125 119.441406 -18.40625 149.984375 -40.15625 C 180.523438 -61.914062 207.300781 -91.410156 230.3125 -128.640625 C 253.320312 -165.878906 274.445312 -207.925781 293.6875 -254.78125 C 312.9375 -301.632812 331.765625 -350.164062 350.171875 -400.375 L 43.921875 -887.34375 L 159.390625 -887.34375 L 390.328125 -518.359375 C 407.898438 -567.722656 426.726562 -614.367188 446.8125 -658.296875 C 466.894531 -702.222656 489.484375 -741.546875 514.578125 -776.265625 C 539.679688 -810.992188 568.757812 -838.1875 601.8125 -857.84375 C 634.863281 -877.507812 672.726562 -887.34375 715.40625 -887.34375 Z M 715.40625 -877.3125 "/></g></g></g></g></g></g><g transform="matrix(1, 0, 0, 1, 583, 41)"><g clip-path="url(#788d429a47)"><g fill="#000000" fill-opacity="1"><g transform="translate(0.0770874, 937.355636)"><g><path d="M 399.125 -489.484375 C 442.632812 -479.441406 477.773438 -460.195312 504.546875 -431.75 C 531.316406 -403.300781 553.695312 -369.832031 571.6875 -331.34375 C 589.6875 -292.851562 607.050781 -253.945312 623.78125 -214.625 C 639.675781 -178.644531 655.988281 -144.960938 672.71875 -113.578125 C 689.457031 -82.203125 708.285156 -57.101562 729.203125 -38.28125 C 750.128906 -19.457031 774.394531 -10.046875 802 -10.046875 L 802 0 C 736.738281 0 685.070312 -8.785156 647 -26.359375 C 608.925781 -43.929688 580.265625 -67.148438 561.015625 -96.015625 C 541.773438 -124.878906 527.972656 -156.460938 519.609375 -190.765625 C 511.242188 -225.078125 504.757812 -259.382812 500.15625 -293.6875 C 495.550781 -328 488.851562 -359.585938 480.0625 -388.453125 C 471.28125 -417.316406 456.640625 -440.535156 436.140625 -458.109375 C 415.640625 -475.679688 385.3125 -484.46875 345.15625 -484.46875 C 281.5625 -484.46875 230.519531 -514.585938 192.03125 -574.828125 C 170.269531 -609.972656 153.953125 -653.066406 143.078125 -704.109375 L 143.078125 0 L 43.921875 0 L 43.921875 -887.34375 L 264.828125 -887.34375 C 326.742188 -887.34375 383.007812 -880.648438 433.625 -867.265625 C 484.25 -853.878906 524.832031 -832.753906 555.375 -803.890625 C 585.914062 -775.023438 601.1875 -736.742188 601.1875 -689.046875 C 601.1875 -648.046875 591.984375 -613.53125 573.578125 -585.5 C 555.171875 -557.46875 530.695312 -535.710938 500.15625 -520.234375 C 469.613281 -504.753906 435.9375 -494.503906 399.125 -489.484375 Z M 502.03125 -689.046875 C 502.03125 -736.742188 490.734375 -774.394531 468.140625 -802 C 445.554688 -829.613281 416.273438 -849.066406 380.296875 -860.359375 C 344.316406 -871.660156 305.828125 -877.3125 264.828125 -877.3125 L 143.078125 -877.3125 L 143.078125 -799.5 C 143.078125 -753.476562 148.304688 -712.476562 158.765625 -676.5 C 169.222656 -640.519531 183.238281 -608.722656 200.8125 -581.109375 C 218.382812 -555.171875 239.722656 -534.039062 264.828125 -517.71875 C 289.929688 -501.40625 316.707031 -493.25 345.15625 -493.25 L 353.9375 -493.25 C 394.101562 -495.757812 428.828125 -512.492188 458.109375 -543.453125 C 487.390625 -574.410156 502.03125 -622.941406 502.03125 -689.046875 Z M 502.03125 -689.046875 "/></g></g></g></g></g><path stroke-linecap="butt" transform="matrix(0.679045, 1.08507, -1.08507, 0.679045, 438.686694, 519.307235)" fill="none" stroke-linejoin="miter" d="M 0.000530374 3.999188 L 430.092058 3.99968 " stroke="#ffffff" stroke-width="8" stroke-opacity="1" stroke-miterlimit="4"/><path stroke-linecap="butt" transform="matrix(1.188919, -0.474288, 0.474288, 1.188919, 476.904339, 162.590658)" fill="none" stroke-linejoin="miter" d="M 2.339793 44.584485 C 77.355902 -9.527556 168.43788 -9.527697 275.588562 44.585191 " stroke="#ffffff" stroke-width="8" stroke-opacity="1" stroke-miterlimit="4"/><g clip-path="url(#1153c0eaab)"><g clip-path="url(#edb6e61d7b)"><g transform="matrix(1, 0, 0, 1, 561, 0.000000000000113687)"><g clip-path="url(#58d18fec7c)"><g clip-path="url(#c8c7a9488d)"><g clip-path="url(#424fc0a51b)"><path fill="#ffffff" d="M 0.164062 0.4375 L 112.011719 0.4375 L 112.011719 112.289062 L 0.164062 112.289062 Z M 0.164062 0.4375 " fill-opacity="1" fill-rule="nonzero"/></g></g></g></g></g></g></g></g></svg>